<?xml version="1.0" encoding="utf-8"?>
<!-- Generator: Adobe Illustrator 19.1.0, SVG Export Plug-In . SVG Version: 6.00 Build 0)  -->
<svg version="1.1" id="Layer_1" xmlns="http://www.w3.org/2000/svg" xmlns:xlink="http://www.w3.org/1999/xlink" x="0px" y="0px"
	 viewBox="0 0 485 128" style="enable-background:new 0 0 485 128;" xml:space="preserve">
<style type="text/css">
	.st0{fill:#FFFFFF;}
	.st1{fill:url(#SVGID_1_);}
</style>
<path class="st0" d="M38.3,56.6c-0.6,1.3-1.9,1.2-4.1-0.2c-2.6-0.8-4.7-1.3-6.3-1.5c-1.6-0.3-3.1-0.4-4.4-0.4
	c-5.3,0-7.9,1.9-7.9,5.6c0,1.8,0.5,3.2,1.4,4.3c0.9,1,3.4,2,7.6,2.8c5.3,1.3,9.5,3.3,12.7,6.3c3.7,2.9,5.6,7.1,5.6,12.6
	c-0.8,12.7-7.6,19-20.5,19c-2.9,0-5.9-0.4-9-1.1c-3.1-0.7-6.9-2-11.3-4c-1.8-0.9-2.4-2.1-1.9-3.6L3,89.5c0.9-1,2.2-0.9,4.1,0.2
	c3.6,1.4,6.3,2.3,8.2,2.8c1.9,0.5,3.8,0.8,5.7,0.8c4.9,0,7.3-1.9,7.3-5.6c0-3.9-3.3-6.6-9.9-7.9c-2.2-0.7-4.2-1.4-6.1-2.2
	c-1.9-0.8-4.1-2.3-6.7-4.7c-1.4-1.6-2.4-3.3-3-5c-0.6-1.7-0.9-3.6-0.9-5.5c0-2.5,0.4-4.9,1.3-7.2C3.8,53,5.1,50.9,6.9,49
	c1.8-1.9,4-3.4,6.7-4.5c2.7-1.1,6-1.7,9.7-1.7c2.3,0,4.8,0.2,7.3,0.7c2.6,0.5,5.1,1.2,7.6,2.3c2.4,0.8,3.5,2,3.2,3.7L38.3,56.6
	L38.3,56.6L38.3,56.6z M50.7,55.8c-1.1,0-1.7-0.6-1.7-1.7v-7.7c0-1.1,0.6-1.7,1.7-1.7h22.8c1.1,0,1.7,0.6,1.7,1.6v54.9
	c0,1.1-0.6,1.6-1.7,1.6H61.7c-1.1,0-1.7-0.5-1.7-1.6V55.8H50.7L50.7,55.8L50.7,55.8z M60.5,20.4c1.9-1.9,4.2-2.8,7-2.8
	c2.7,0,5,0.9,7,2.8c1.9,1.9,2.9,4.2,2.9,6.8c0,2.7-1,5-2.9,6.8c-1.9,1.9-4.2,2.8-7,2.8c-2.7,0-5-0.9-7-2.8c-1.9-1.9-2.9-4.2-2.9-6.8
	C57.7,24.5,58.6,22.3,60.5,20.4L60.5,20.4L60.5,20.4z M107.8,123.6c-0.3,1.2-1.1,1.9-2.3,2.1L93.8,128c-0.8,0-1.2-0.4-1.2-1.2V65.8
	c0-7.5-0.6-13-1.8-16.5c-0.6-1.6-0.3-2.6,0.8-3.2l9.1-2.9c2.6-0.3,4.1,0.6,4.4,2.6c0.6,1.6,0.9,2.6,1.1,3.2c2.6-2.4,5.1-4,7.6-4.8
	c2.5-0.9,5-1.3,7.4-1.3c3,0,5.8,0.5,8.3,1.4c2.5,0.9,4.8,2.9,6.9,5.9c1.2,1.7,2.2,3.6,3,5.6c0.8,2,1.4,4,1.8,6.1
	c0.4,2.1,0.7,4.1,0.8,6.1c0.2,2,0.2,3.9,0.2,5.6c0,1.9-0.1,3.8-0.2,5.8c-0.1,2-0.4,4-0.8,6c-0.4,2-1,4.1-1.8,6
	c-0.8,2-1.9,3.9-3.2,5.8c-2.1,2.8-4.5,4.8-7.1,6.1c-2.7,1.3-6.1,1.9-10.1,1.9c-1.2,0-2.7-0.2-4.4-0.5c-1.8-0.3-4-1.2-6.8-2.6V123.6
	L107.8,123.6L107.8,123.6z M107.8,91.1c1.7,1,3.3,1.7,4.8,1.9c1.5,0.2,2.8,0.4,3.8,0.4c1.4,0,2.9-0.3,4.6-0.9c1.7-0.6,3.1-2,4.2-4.1
	c0.1-0.2,0.2-0.7,0.5-1.2c0.2-0.6,0.5-1.5,0.7-2.6c0.2-1.1,0.4-2.6,0.5-4.5c0.2-1.9,0.2-4.2,0.2-6.9c0-2.5-0.2-5.2-0.7-7.9
	c-0.4-2.7-1.1-4.9-2-6.5c-1.6-2.8-4.1-4.3-7.4-4.3c-1.9,0-3.7,0.5-5.2,1.4c-1.6,0.9-2.9,2-4,3.1V91.1L107.8,91.1L107.8,91.1z
	 M202.6,80.1l0.6,27.4c0,0.8,0,1.8-0.1,3.2c-0.1,1.3-0.4,2.8-0.8,4.3c-0.5,1.5-1.2,3.1-2.2,4.6c-1,1.5-2.4,2.9-4.1,4.2
	c-1.7,1.3-3.9,2.3-6.5,3.1c-2.6,0.8-5.7,1.2-9.4,1.2c-1.7,0-3.5-0.1-5.6-0.3c-2-0.2-4.1-0.5-6.2-0.9c-2.1-0.4-4.1-0.9-6.1-1.5
	c-2-0.6-3.8-1.2-5.4-1.9c-1.4-0.7-1.9-1.7-1.3-3.1l2.5-8c0.6-0.9,1.9-1.1,3.7-0.4c1.4,0.6,3.6,1.3,6.6,2.1c3,0.9,6.5,1.3,10.6,1.3
	c2.3,0,4.1-0.3,5.4-0.9c1.3-0.6,2.2-1.3,2.9-2.3c0.6-0.9,1-2,1.1-3.2c0.1-1.2,0.2-2.4,0.2-3.5c0-1.5,0-2.9-0.1-4.2
	c-0.1-1.3-0.2-2.4-0.2-3.5c-2.3,1.5-4.5,2.6-6.6,3.4c-2.1,0.7-4.7,1.1-7.7,1.1c-2.5,0-4.9-0.4-7.4-1.4c-2.5-0.9-4.7-2.5-6.6-4.7
	c-2-2.2-3.5-5.1-4.7-8.8c-1.2-3.7-1.8-8.3-1.8-13.8c0-5.2,0.6-9.7,1.7-13.5c1.1-3.8,2.7-7.1,4.7-9.7c2-2.6,4.5-4.5,7.3-5.8
	c2.8-1.3,5.9-1.9,9.3-1.9c2.2,0,4,0.2,5.6,0.7c1.6,0.5,3.1,1.1,4.4,1.8c1.3,0.7,2.6,1.7,3.9,3c0.3-0.9,0.9-2.1,1.7-3.5
	c0.8-1.4,2.1-2,3.7-1.9l9.4,3.4c1.5,1,1.5,3,0,6c-1.5,2.9-2.3,6.4-2.3,10.2V80.1L202.6,80.1z M188.1,59c-1.6-1.2-3-2-4.3-2.6
	c-1.3-0.6-2.8-0.9-4.7-0.9c-2.6,0-4.7,0.7-6.1,2c-1.4,1.4-2.5,3-3.2,4.8c-0.7,1.9-1.1,3.8-1.3,5.8c-0.2,2-0.2,3.7-0.2,5
	c0,2.1,0.1,4.2,0.3,6.3c0.2,2.1,0.7,3.9,1.4,5.5c0.7,1.6,1.7,3,3,4c1.3,1,3.1,1.5,5.3,1.5c1.5,0,3.2-0.3,5.1-1
	c1.9-0.7,3.4-1.7,4.6-3V59L188.1,59L188.1,59z M251.8,104.7c-1.2,0.1-2.1-0.3-2.5-1.2c-1-2-1.7-3.9-2-5.6c-2.3,2.4-4.7,4.1-7.1,5.3
	c-2.4,1.2-5.3,1.8-8.7,1.8c-5.4,0-9.8-1.6-12.9-4.9c-3.2-3.3-4.8-7.6-4.8-13c0-7,2.4-12.1,7.3-15.3c5.5-3.2,13.5-4.8,24-4.8v-3.7
	c0-0.9,0-1.9-0.1-3.2c-0.1-1.2-0.5-2.3-1.3-3.3c-0.6-0.6-1.4-1.2-2.4-1.7c-1-0.5-2.4-0.7-4.1-0.7c-1.6,0-3.2,0.2-4.9,0.5
	c-1.7,0.3-3.3,0.7-4.8,1.2c-4,1.7-6.3,1.9-6.8,0.4l-2.6-7.1c-0.5-1.5,0.4-2.7,2.5-3.5c1.2-0.6,2.6-1,4.2-1.4c1.6-0.4,3.2-0.7,4.9-1
	c1.7-0.3,3.3-0.5,5-0.6c1.6-0.1,3.1-0.2,4.3-0.2c3.8,0,7.2,0.5,10.4,1.5c3.2,1,5.7,3,7.6,6c1.2,2,1.9,4.2,2.2,6.4
	c0.3,2.2,0.4,3.9,0.4,5v22.7c0,1.7,0.1,3.5,0.2,5.4c0.2,1.9,0.7,4,1.6,6.2c0.4,1.1,0.8,2,1.1,2.7c0.3,0.7,0.1,1.4-0.7,2L251.8,104.7
	L251.8,104.7L251.8,104.7z M245,76.7c-2.1,0-4.1,0.1-6.1,0.4c-2,0.2-3.8,0.7-5.4,1.4c-1.6,0.7-2.9,1.6-3.8,2.9
	c-1,1.3-1.4,2.9-1.4,4.8c0,2.4,0.8,4.4,2.3,5.8c1.5,1.5,3.4,2.2,5.5,2.2c1.6,0,3.1-0.4,4.6-1.2c1.5-0.8,2.9-1.9,4.3-3.3V76.7
	L245,76.7L245,76.7z M279.1,55.8h-8.5c-1.1,0-1.7-0.6-1.7-1.7v-7.7c0-1.1,0.6-1.7,1.7-1.7h8.5V30c0-1.3,0.6-2,1.9-2.1l10.6-1.4
	c1.8-0.3,2.8,0.3,2.8,1.9v16.5h13.5c1.4,0,2.1,0.8,1.9,2.4l-1.4,7c-0.4,1.1-1,1.7-1.8,1.7h-12.2v28.5c0,0.9,0,1.9,0,2.8
	c0,0.9,0.1,1.6,0.4,2.2c0.3,0.6,0.7,1.1,1.4,1.5c0.6,0.4,1.6,0.6,2.9,0.6c0.9,0,1.8-0.1,2.8-0.3c1-0.2,2.3-0.6,3.9-1.2
	c1.6-0.8,2.7-0.8,3.2,0l2.4,9.7c0.2,1.8-0.9,2.9-3.1,3.3c-1.8,0.7-4,1.2-6.4,1.6c-2.4,0.4-4.6,0.5-6.6,0.5c-4,0-7.1-0.6-9.3-1.9
	c-2.2-1.3-3.8-2.9-4.8-5.1c-1-2.1-1.6-4.5-1.8-7.2c-0.2-2.7-0.3-5.6-0.3-8.5V55.8L279.1,55.8z M332,78c0,4.2,1,7.7,2.9,10.4
	c1.9,2.7,5.4,4,10.3,4c2.8,0,5.2-0.3,7.3-0.8c2-0.6,3.6-1.1,4.7-1.6c2.2-1.1,3.7-1.2,4.6-0.2l3,7c1,1.6,0.4,2.8-1.6,3.7
	c-2.2,1.5-5.1,2.7-8.7,3.5c-3.6,0.8-7,1.2-10.4,1.2c-4.2,0-7.9-0.6-10.9-1.7c-3-1.1-5.5-2.5-7.3-4.3c-1.8-1.7-3.4-3.7-4.8-5.8
	c-1.4-2.2-2.3-4.3-2.9-6.6c-0.6-2.2-1-4.3-1.1-6.3c-0.2-2-0.2-3.7-0.2-5c0-4.6,0.6-9,1.7-13c1.2-4,2.9-7.5,5.1-10.4
	c2.2-2.9,5-5.2,8.2-6.8c3.2-1.7,7-2.5,11.2-2.5c3.8,0,7,0.6,9.6,1.7c2.6,1.1,4.8,2.6,6.6,4.4c1.8,1.8,3.1,3.9,4.1,6.2
	c1,2.3,1.8,4.6,2.3,6.9c0.6,2.5,1,4.8,1.1,6.9c0.1,2.1,0.2,3.9,0.2,5.5c0,2.5-0.9,3.8-2.8,3.8H332L332,78L332,78z M350.9,67
	c0-8.8-2.9-13.3-8.7-13.3c-6.8,0-10.2,4.4-10.2,13.3H350.9L350.9,67z"/>
<linearGradient id="SVGID_1_" gradientUnits="userSpaceOnUse" x1="442.2541" y1="65.7763" x2="405.0095" y2="-7.3202">
	<stop  offset="0" style="stop-color:#F85C5C"/>
	<stop  offset="0.1476" style="stop-color:#F25C60"/>
	<stop  offset="0.3517" style="stop-color:#E05C6B"/>
	<stop  offset="0.5888" style="stop-color:#C35C7D"/>
	<stop  offset="0.8487" style="stop-color:#9A5B95"/>
	<stop  offset="1" style="stop-color:#7F5BA6"/>
</linearGradient>
<path class="st1" d="M485,29.2c0,1-0.4,2-1.1,2.8c-0.1,0.1-0.3,0.2-0.4,0.4l-25,25c-1.5,1.5-3.9,1.5-5.5,0c-1.5-1.5-1.5-3.9,0-5.4
	l22.7-22.7L453,6.6c-1.5-1.5-1.5-3.9,0-5.4c1.5-1.5,3.9-1.5,5.5,0l25,25c0.2,0.1,0.3,0.2,0.4,0.4C484.6,27.2,485,28.2,485,29.2z
	 M394.3,1.1c-1.5-1.5-3.9-1.5-5.5,0l-25,25c-0.2,0.1-0.3,0.2-0.4,0.4c-0.8,0.8-1.1,1.8-1.1,2.8c0,1,0.4,2,1.1,2.8
	c0.1,0.1,0.3,0.2,0.4,0.4l25,25c1.5,1.5,3.9,1.5,5.5,0c1.5-1.5,1.5-3.9,0-5.4l-22.7-22.7l22.7-22.7C395.8,5.1,395.8,2.6,394.3,1.1z
	 M415.6,15c3.5,0,5.3-1.7,5.3-5.1c0-3.4-1.8-5-5.3-5c-3.5,0-5.2,1.7-5.2,5C410.4,13.3,412.2,15,415.6,15z M416.9,19H405
	c-0.5,0-0.8,0.2-1,0.7l-0.8,3.7c0,0.7,0.3,1,0.8,1h4.8L403.7,48c-0.2,0.9,0,1.3,0.8,1.3h6c0.5,0,0.8-0.2,0.9-0.7l6.2-28.2
	C417.8,19.5,417.6,19,416.9,19z M447.5,29.1c0,3.3-0.5,6.3-1.6,8.9c-1.1,2.6-2.4,4.9-4,6.7c-1.1,1.3-2.3,2.3-3.5,3
	c-1.2,0.7-2.4,1.3-3.5,1.7c-1.1,0.4-2.2,0.6-3.1,0.7c-0.9,0.1-1.7,0.2-2.4,0.2c-6.9,0-10.4-3.7-10.4-11.2c0-3.2,0.5-6.2,1.6-9
	c1.1-2.7,2.5-5.1,4.3-6.9c1.8-2,3.8-3.3,6-4.1c2.2-0.8,4.3-1.2,6.3-1.2C444.1,18,447.5,21.7,447.5,29.1z M439.4,28.6
	c0-3-1.2-4.5-3.7-4.5c-0.8,0-1.5,0.1-2.2,0.4c-0.6,0.3-1.2,0.6-1.7,1c-0.5,0.4-0.9,0.9-1.2,1.3c-0.3,0.5-0.6,0.9-0.8,1.3
	c-0.9,1.6-1.5,3.4-2,5.5c-0.5,2-0.7,4-0.7,6c0,3,1.2,4.5,3.6,4.5c0.4,0,0.9-0.1,1.5-0.2c0.6-0.1,1.1-0.4,1.7-0.7s1.1-0.9,1.7-1.5
	c0.6-0.6,1.1-1.5,1.6-2.5c0.4-0.8,0.7-1.6,1-2.5c0.3-0.9,0.5-1.8,0.7-2.8c0.2-0.9,0.3-1.9,0.4-2.8C439.4,30.3,439.4,29.4,439.4,28.6
	z"/>
</svg>
